<?xml version="1.0" encoding="UTF-8"?>
<svg id="Logo" xmlns="http://www.w3.org/2000/svg" viewBox="0 0 708.66 243.96">
  <defs>
    <style>
      .cls-1 {
        fill: #d4bede;
      }

      .cls-2 {
        fill: #fff;
      }
    </style>
  </defs>
  <g>
    <g>
      <path class="cls-2" d="M280.55,93.77v-45.18h21.68c5.19,0,9,1.37,11.44,4.1,2.43,2.74,3.65,6.42,3.65,11.05,0,3.04-.78,5.66-2.35,7.86-1.57,2.2-3.78,3.79-6.63,4.77.75.61,1.34,1.26,1.79,1.96.44.7.9,1.64,1.37,2.81l5.47,12.63h-9.82l-5.33-12.14c-.47-1.03-.98-1.75-1.54-2.17-.56-.42-1.5-.63-2.81-.63h-7.44v14.94h-9.47ZM290.03,70.97h9.75c2.48,0,4.42-.55,5.82-1.65,1.4-1.1,2.11-2.96,2.11-5.58s-.61-4.37-1.82-5.54c-1.22-1.17-3.06-1.75-5.54-1.75h-10.31v14.52Z"/>
      <path class="cls-2" d="M329.45,94.48c-2.11,0-4.06-.39-5.86-1.16-1.8-.77-3.25-1.92-4.35-3.44-1.1-1.52-1.65-3.43-1.65-5.72,0-3.27,1.16-5.89,3.47-7.86,2.32-1.96,5.74-2.95,10.28-2.95h9.82v-.91c0-2.06-.57-3.51-1.72-4.35-1.15-.84-3.45-1.26-6.91-1.26-3.79,0-7.44.59-10.94,1.75v-6.66c1.54-.61,3.43-1.11,5.65-1.51,2.22-.4,4.64-.6,7.26-.6,5,0,8.88,1.02,11.61,3.05,2.74,2.03,4.1,5.3,4.1,9.79v21.12h-8.21l-.49-3.02c-1.31,1.17-2.92,2.08-4.84,2.74-1.92.65-4.33.98-7.23.98ZM332.05,88.23c2.11,0,3.93-.35,5.47-1.05,1.54-.7,2.76-1.59,3.65-2.67v-5.26h-9.61c-3.7,0-5.54,1.52-5.54,4.56s2.01,4.42,6.03,4.42Z"/>
      <path class="cls-2" d="M370.01,94.48c-2.95,0-5.58-.53-7.89-1.58-2.32-1.05-4.13-2.78-5.44-5.19-1.31-2.41-1.96-5.6-1.96-9.58s.72-7.32,2.18-10.03c1.45-2.71,3.39-4.77,5.82-6.17,2.43-1.4,5.1-2.11,8-2.11,3.65,0,6.76.84,9.33,2.53v-13.75h9.47v45.18h-8.14l-.56-3.09c-1.45,1.26-3.03,2.21-4.74,2.84-1.71.63-3.73.95-6.07.95ZM372.6,87.53c2.95,0,5.43-1.01,7.44-3.02v-15.15c-1.96-1.73-4.26-2.6-6.88-2.6-5.89,0-8.84,3.79-8.84,11.37,0,3.55.72,6.01,2.17,7.37,1.45,1.36,3.48,2.03,6.1,2.03Z"/>
      <g>
        <polygon class="cls-2" points="398.84 93.77 398.84 67.53 393.86 67.53 394.7 60.52 408.31 60.52 408.31 93.77 398.84 93.77"/>
        <rect class="cls-2" x="398.07" y="48.59" width="10.31" height="7.44"/>
      </g>
      <path class="cls-2" d="M425.08,94.48c-2.11,0-4.06-.39-5.86-1.16-1.8-.77-3.25-1.92-4.35-3.44-1.1-1.52-1.65-3.43-1.65-5.72,0-3.27,1.16-5.89,3.47-7.86,2.32-1.96,5.74-2.95,10.28-2.95h9.82v-.91c0-2.06-.57-3.51-1.72-4.35-1.15-.84-3.45-1.26-6.91-1.26-3.79,0-7.44.59-10.94,1.75v-6.66c1.54-.61,3.43-1.11,5.65-1.51,2.22-.4,4.64-.6,7.26-.6,5,0,8.88,1.02,11.61,3.05,2.74,2.03,4.1,5.3,4.1,9.79v21.12h-8.21l-.49-3.02c-1.31,1.17-2.92,2.08-4.84,2.74-1.92.65-4.33.98-7.23.98ZM427.68,88.23c2.11,0,3.93-.35,5.47-1.05,1.54-.7,2.76-1.59,3.65-2.67v-5.26h-9.61c-3.7,0-5.54,1.52-5.54,4.56s2.01,4.42,6.03,4.42Z"/>
      <path class="cls-2" d="M451.74,93.77v-33.25h8.77l.35,3.16c1.36-1.03,3.08-1.93,5.16-2.7,2.08-.77,4.27-1.16,6.56-1.16,4.4,0,7.6,1.03,9.61,3.09,2.01,2.06,3.02,5.24,3.02,9.54v21.33h-9.47v-20.84c0-2.25-.46-3.83-1.37-4.77-.91-.94-2.61-1.4-5.09-1.4-1.45,0-2.91.33-4.39.98-1.47.66-2.7,1.47-3.68,2.46v23.57h-9.47Z"/>
      <path class="cls-2" d="M504.36,94.48c-3.84,0-6.68-1.01-8.52-3.02-1.85-2.01-2.77-4.75-2.77-8.21v-15.44h-4.7v-7.3h4.7v-9.12l9.47-2.81v11.93h8.42l-.56,7.3h-7.86v14.8c0,1.82.42,3.08,1.26,3.75.84.68,2.15,1.02,3.93,1.02,1.31,0,2.67-.23,4.07-.7v6.53c-1.03.42-2.15.74-3.37.95-1.22.21-2.57.32-4.07.32Z"/>
    </g>
    <g>
      <path class="cls-2" d="M600.34,155.9c-3.84,0-6.68-1.01-8.52-3.02-1.85-2.01-2.77-4.75-2.77-8.21v-15.44h-4.7v-7.3h4.7v-9.12l9.47-2.81v11.93h8.42l-.56,7.3h-7.86v14.8c0,1.82.42,3.08,1.26,3.75.84.68,2.15,1.02,3.93,1.02,1.31,0,2.67-.23,4.07-.7v6.53c-1.03.42-2.15.74-3.37.95-1.22.21-2.57.32-4.07.32Z"/>
      <path class="cls-2" d="M280.55,155.2v-45.18h32.41v7.37h-22.94v11.58h20.35v7.3h-20.35v11.65h22.94v7.3h-32.41Z"/>
      <path class="cls-2" d="M317.81,155.2v-45.18h8.21l21.4,30.1v-30.1h9.47v45.18h-8.21l-21.4-30.1v30.1h-9.47Z"/>
      <path class="cls-2" d="M374.22,155.2v-37.89h-13.89v-7.3h37.18v7.3h-13.82v37.89h-9.47Z"/>
      <path class="cls-2" d="M414.63,155.2v-45.18h9.47v18.94h19.71v-18.94h9.47v45.18h-9.47v-18.94h-19.71v18.94h-9.47Z"/>
      <path class="cls-2" d="M476.16,155.9c-6.22,0-10.78-1.51-13.68-4.53-2.9-3.02-4.35-7.28-4.35-12.8s1.46-9.79,4.39-12.8c2.92-3.02,7.47-4.53,13.65-4.53s10.79,1.51,13.72,4.53c2.92,3.02,4.39,7.29,4.39,12.8s-1.45,9.79-4.35,12.8c-2.9,3.02-7.48,4.53-13.75,4.53ZM476.16,147.83c3.04,0,5.21-.69,6.52-2.07,1.31-1.38,1.96-3.78,1.96-7.19s-.66-5.81-1.96-7.19c-1.31-1.38-3.48-2.07-6.52-2.07s-5.15.69-6.45,2.07c-1.31,1.38-1.96,3.78-1.96,7.19s.65,5.81,1.96,7.19c1.31,1.38,3.46,2.07,6.45,2.07Z"/>
      <path class="cls-2" d="M510.46,155.9c-2.48,0-4.84-.18-7.09-.53-2.25-.35-4.05-.78-5.4-1.3v-7.86c1.64.66,3.48,1.16,5.54,1.51,2.06.35,3.95.53,5.68.53,2.34,0,3.99-.14,4.95-.42.96-.28,1.44-.91,1.44-1.89,0-1.12-.74-1.94-2.21-2.46-1.47-.51-3.66-1.24-6.56-2.18-3.04-1.03-5.38-2.27-7.02-3.72-1.64-1.45-2.46-3.6-2.46-6.45,0-3.18,1.16-5.62,3.47-7.33,2.32-1.71,6.04-2.56,11.19-2.56,2.06,0,4,.15,5.82.46,1.82.3,3.37.67,4.63,1.09v7.79c-1.26-.61-2.71-1.06-4.35-1.37-1.64-.3-3.16-.46-4.56-.46-2.01,0-3.61.14-4.81.42-1.19.28-1.79.89-1.79,1.82,0,1.03.64,1.75,1.93,2.17,1.29.42,3.29,1.05,6,1.89,2.67.8,4.75,1.66,6.24,2.6,1.5.94,2.55,2.05,3.16,3.33.61,1.29.91,2.89.91,4.81,0,6.74-4.91,10.1-14.73,10.1Z"/>
      <path class="cls-2" d="M530.04,168.86v-46.92h8.21l.49,3.09c1.45-1.22,3.04-2.15,4.77-2.81,1.73-.65,3.76-.98,6.1-.98,4.86,0,8.62,1.32,11.26,3.96,2.64,2.64,3.96,6.96,3.96,12.94s-1.42,10.44-4.24,13.36c-2.83,2.92-6.68,4.39-11.54,4.39-3.74,0-6.92-.84-9.54-2.53v15.48h-9.47ZM546.67,148.95c2.81,0,4.93-.86,6.38-2.6,1.45-1.73,2.17-4.44,2.17-8.14s-.66-6.11-1.96-7.68c-1.31-1.57-3.41-2.35-6.31-2.35s-5.38,1.01-7.44,3.02v15.22c.98.75,2.02,1.36,3.12,1.82,1.1.47,2.44.7,4.03.7Z"/>
      <g>
        <polygon class="cls-2" points="571.36 155.2 571.36 128.96 566.38 128.96 567.22 121.94 580.83 121.94 580.83 155.2 571.36 155.2"/>
        <rect class="cls-2" x="570.59" y="110.01" width="10.31" height="7.44"/>
      </g>
      <path class="cls-2" d="M621.31,155.9c-2.11,0-4.06-.39-5.86-1.16-1.8-.77-3.25-1.92-4.35-3.44-1.1-1.52-1.65-3.43-1.65-5.72,0-3.27,1.16-5.89,3.47-7.86,2.32-1.96,5.74-2.95,10.28-2.95h9.82v-.91c0-2.06-.57-3.51-1.72-4.35-1.15-.84-3.45-1.26-6.91-1.26-3.79,0-7.44.59-10.94,1.75v-6.66c1.54-.61,3.43-1.11,5.65-1.51,2.22-.4,4.64-.6,7.26-.6,5,0,8.88,1.02,11.61,3.05,2.74,2.03,4.1,5.3,4.1,9.79v21.12h-8.21l-.49-3.02c-1.31,1.17-2.92,2.08-4.84,2.74-1.92.65-4.33.98-7.23.98ZM623.91,149.65c2.11,0,3.93-.35,5.47-1.05,1.54-.7,2.76-1.59,3.65-2.67v-5.26h-9.61c-3.7,0-5.54,1.52-5.54,4.56s2.01,4.42,6.03,4.42Z"/>
      <path class="cls-2" d="M657.24,155.9c-3.23,0-5.58-.75-7.05-2.25-1.47-1.5-2.21-3.88-2.21-7.16v-36.48h9.47v35.71c0,1.17.23,1.98.7,2.42.47.45,1.15.67,2.03.67,1.22,0,2.32-.16,3.3-.49v6.52c-1.78.7-3.86,1.05-6.24,1.05Z"/>
    </g>
    <g>
      <path class="cls-2" d="M280.55,198.48v-21.64h9.51c2.33,0,4.03.6,5.09,1.81,1.06,1.21,1.6,2.85,1.6,4.91,0,1.59-.39,2.91-1.16,3.97-.77,1.05-1.92,1.76-3.44,2.12.45.27.79.58,1.02.92.24.35.48.81.72,1.39l2.82,6.52h-2.82l-2.76-6.28c-.29-.67-.64-1.15-1.06-1.44-.41-.29-1.15-.44-2.2-.44h-4.57v8.17h-2.76ZM283.31,188.16h5.98c1.46,0,2.6-.36,3.44-1.09.84-.73,1.26-1.9,1.26-3.51,0-3.02-1.44-4.54-4.34-4.54h-6.35v9.14Z"/>
      <path class="cls-2" d="M308.11,198.82c-2.85,0-4.97-.68-6.39-2.05-1.41-1.37-2.12-3.47-2.12-6.32,0-2.55.61-4.56,1.83-6.03,1.22-1.47,3.15-2.2,5.8-2.2,1.57,0,2.86.29,3.88.86,1.02.57,1.78,1.36,2.29,2.35.5,1,.76,2.12.76,3.38v2.99h-11.8c.09,1.21.35,2.16.79,2.86.44.69,1.1,1.19,1.98,1.5.88.3,2.05.45,3.51.45,1.64,0,3.14-.28,4.5-.84v2.15c-.69.29-1.47.52-2.34.67s-1.76.24-2.7.24ZM302.36,189.81h9.34v-1.31c0-1.3-.34-2.3-1.02-3.01-.68-.71-1.81-1.06-3.38-1.06-1.9,0-3.2.45-3.9,1.34-.69.9-1.04,2.24-1.04,4.03Z"/>
      <path class="cls-2" d="M321.65,198.82c-1.08,0-1.92-.29-2.54-.86s-.92-1.54-.92-2.91v-19.22h2.76v18.92c0,.67.11,1.13.34,1.38.22.25.57.37,1.04.37.52,0,1.02-.07,1.51-.2v2.18c-.36.13-.72.22-1.08.27-.36.04-.73.07-1.11.07Z"/>
      <path class="cls-2" d="M327.64,198.48v-13.75h-2.45l.27-2.18h4.94v15.93h-2.76ZM327.37,178.82v-2.52h3.06v2.52h-3.06Z"/>
      <path class="cls-2" d="M342.96,198.82c-2.85,0-4.97-.68-6.39-2.05-1.41-1.37-2.12-3.47-2.12-6.32,0-2.55.61-4.56,1.83-6.03,1.22-1.47,3.15-2.2,5.8-2.2,1.57,0,2.86.29,3.88.86s1.78,1.36,2.29,2.35c.5,1,.76,2.12.76,3.38v2.99h-11.8c.09,1.21.35,2.16.79,2.86.44.69,1.1,1.19,1.98,1.5.88.3,2.05.45,3.51.45,1.64,0,3.14-.28,4.5-.84v2.15c-.69.29-1.47.52-2.34.67-.86.16-1.76.24-2.7.24ZM337.21,189.81h9.34v-1.31c0-1.3-.34-2.3-1.02-3.01-.68-.71-1.81-1.06-3.38-1.06-1.9,0-3.2.45-3.9,1.34-.69.9-1.04,2.24-1.04,4.03Z"/>
      <path class="cls-2" d="M354.08,198.48v-13.75h-2.39v-2.18h2.39v-2.32c0-1.52.42-2.73,1.26-3.61.84-.88,2.08-1.33,3.71-1.33.58,0,1.11.05,1.6.13.48.09.92.21,1.33.37v2.08c-.69-.25-1.43-.37-2.22-.37-1.14,0-1.92.21-2.32.62-.4.41-.6,1.11-.6,2.1v2.32h4.3l-.13,2.18h-4.17v13.75h-2.76Z"/>
      <path class="cls-2" d="M361.78,198.48v-3.49h3.75v3.49h-3.75Z"/>
      <path class="cls-2" d="M376.97,198.48v-21.64h9.51c2.33,0,4.03.6,5.09,1.81,1.06,1.21,1.6,2.85,1.6,4.91,0,1.59-.39,2.91-1.16,3.97-.77,1.05-1.92,1.76-3.44,2.12.45.27.79.58,1.02.92.24.35.48.81.72,1.39l2.82,6.52h-2.82l-2.76-6.28c-.29-.67-.64-1.15-1.06-1.44-.41-.29-1.15-.44-2.2-.44h-4.57v8.17h-2.76ZM379.73,188.16h5.98c1.46,0,2.6-.36,3.44-1.09.84-.73,1.26-1.9,1.26-3.51,0-3.02-1.44-4.54-4.34-4.54h-6.35v9.14Z"/>
      <path class="cls-2" d="M404.53,198.82c-2.85,0-4.97-.68-6.39-2.05-1.41-1.37-2.12-3.47-2.12-6.32,0-2.55.61-4.56,1.83-6.03,1.22-1.47,3.15-2.2,5.8-2.2,1.57,0,2.86.29,3.88.86s1.78,1.36,2.29,2.35c.5,1,.76,2.12.76,3.38v2.99h-11.8c.09,1.21.35,2.16.79,2.86.44.69,1.1,1.19,1.98,1.5.88.3,2.05.45,3.51.45,1.64,0,3.14-.28,4.5-.84v2.15c-.69.29-1.47.52-2.34.67s-1.76.24-2.7.24ZM398.78,189.81h9.34v-1.31c0-1.3-.34-2.3-1.02-3.01-.68-.71-1.81-1.06-3.38-1.06-1.9,0-3.2.45-3.9,1.34-.69.9-1.04,2.24-1.04,4.03Z"/>
      <path class="cls-2" d="M422.14,198.82c-2.78,0-4.84-.72-6.18-2.17-1.34-1.44-2.02-3.49-2.02-6.13,0-2.8.76-4.88,2.29-6.25,1.52-1.37,3.57-2.05,6.15-2.05,1.05,0,1.93.07,2.62.22.69.15,1.37.38,2.02.69v2.18c-1.21-.58-2.59-.87-4.13-.87-1.97,0-3.49.47-4.57,1.4-1.08.93-1.61,2.49-1.61,4.69s.47,3.65,1.41,4.62c.94.97,2.5,1.46,4.67,1.46,1.55,0,2.97-.29,4.27-.87v2.22c-.69.29-1.44.51-2.23.66-.8.15-1.69.22-2.67.22Z"/>
      <path class="cls-2" d="M437.43,198.82c-2.78,0-4.8-.71-6.07-2.13-1.27-1.42-1.9-3.48-1.9-6.17s.64-4.72,1.92-6.15,3.29-2.15,6.05-2.15,4.77.72,6.05,2.15c1.28,1.43,1.92,3.48,1.92,6.15s-.63,4.74-1.88,6.17c-1.25,1.42-3.28,2.13-6.08,2.13ZM437.43,196.46c1.9,0,3.25-.48,4.03-1.43.78-.95,1.18-2.46,1.18-4.52s-.4-3.57-1.19-4.52c-.8-.95-2.13-1.43-4.02-1.43s-3.22.48-4.02,1.43c-.8.95-1.19,2.46-1.19,4.52s.39,3.57,1.18,4.52c.78.95,2.13,1.43,4.03,1.43Z"/>
      <path class="cls-2" d="M453.16,198.48l-6.25-15.93h2.86l4.94,13.38,4.94-13.38h2.86l-6.25,15.93h-3.09Z"/>
      <path class="cls-2" d="M472.52,198.82c-2.85,0-4.97-.68-6.39-2.05-1.41-1.37-2.12-3.47-2.12-6.32,0-2.55.61-4.56,1.83-6.03,1.22-1.47,3.15-2.2,5.8-2.2,1.57,0,2.86.29,3.88.86,1.02.57,1.78,1.36,2.29,2.35.5,1,.76,2.12.76,3.38v2.99h-11.8c.09,1.21.35,2.16.79,2.86.44.69,1.1,1.19,1.98,1.5.88.3,2.05.45,3.51.45,1.64,0,3.14-.28,4.5-.84v2.15c-.69.29-1.47.52-2.34.67s-1.76.24-2.7.24ZM466.77,189.81h9.34v-1.31c0-1.3-.34-2.3-1.02-3.01-.68-.71-1.81-1.06-3.38-1.06-1.9,0-3.2.45-3.9,1.34-.69.9-1.04,2.24-1.04,4.03Z"/>
      <path class="cls-2" d="M482.6,198.48v-15.93h2.49l.2,2.02c.78-.52,1.71-.99,2.77-1.41,1.06-.43,2.11-.74,3.14-.94v2.15c-.63.13-1.31.32-2.05.55-.74.24-1.44.5-2.12.79-.67.29-1.23.59-1.68.91v11.86h-2.76Z"/>
      <path class="cls-2" d="M496.04,204.4c-1.05,0-1.97-.15-2.76-.44v-2.22c.38.13.73.22,1.06.27.32.04.65.07.99.07.76,0,1.36-.13,1.8-.4.44-.27.82-.68,1.16-1.23s.71-1.26,1.11-2.13l-7.02-15.76h2.86l5.54,12.84,5.71-12.84h2.82l-6.69,15.22c-.56,1.28-1.13,2.41-1.71,3.41-.58,1-1.26,1.78-2.02,2.35-.76.57-1.71.86-2.86.86Z"/>
      <path class="cls-2" d="M524.67,198.48v-21.64h9.51c2.33,0,4.03.6,5.09,1.81,1.06,1.21,1.6,2.85,1.6,4.91,0,1.59-.39,2.91-1.16,3.97-.77,1.05-1.92,1.76-3.44,2.12.45.27.79.58,1.02.92.24.35.48.81.72,1.39l2.82,6.52h-2.82l-2.76-6.28c-.29-.67-.64-1.15-1.06-1.44-.41-.29-1.15-.44-2.2-.44h-4.57v8.17h-2.76ZM527.43,188.16h5.98c1.46,0,2.6-.36,3.44-1.09.84-.73,1.26-1.9,1.26-3.51,0-3.02-1.44-4.54-4.34-4.54h-6.35v9.14Z"/>
      <path class="cls-2" d="M548.33,198.82c-1.01,0-1.94-.18-2.79-.54-.85-.36-1.53-.89-2.05-1.6-.52-.71-.77-1.6-.77-2.67,0-1.46.48-2.65,1.44-3.58.96-.93,2.53-1.39,4.71-1.39h5.54v-.97c0-.87-.12-1.57-.35-2.08-.24-.52-.68-.88-1.33-1.11-.65-.22-1.6-.34-2.86-.34-.96,0-1.89.08-2.79.24-.9.16-1.74.37-2.52.64v-2.29c.72-.27,1.56-.49,2.54-.66.97-.17,2.02-.25,3.14-.25,2.26,0,3.96.46,5.09,1.38,1.13.92,1.7,2.41,1.7,4.47v10.42h-2.32l-.2-1.81c-.69.72-1.53,1.25-2.52,1.61-.99.36-2.21.54-3.66.54ZM549.04,196.56c1.16,0,2.2-.21,3.09-.62.9-.41,1.66-.98,2.29-1.7v-3.09h-5.48c-1.25,0-2.15.24-2.69.71-.54.47-.81,1.19-.81,2.15s.32,1.63.97,2c.65.37,1.52.55,2.62.55Z"/>
      <path class="cls-2" d="M568.09,198.82c-2.24,0-4-.62-5.28-1.87s-1.92-3.31-1.92-6.2.67-5.01,2-6.42c1.33-1.41,3.12-2.12,5.36-2.12,1.99,0,3.72.5,5.18,1.51v-7.9h2.76v22.65h-2.35l-.2-1.68c-.74.69-1.55,1.2-2.44,1.53-.89.32-1.92.49-3.11.49ZM568.8,196.6c.92,0,1.77-.16,2.55-.47.78-.31,1.48-.8,2.08-1.44v-8.67c-.56-.49-1.22-.88-1.98-1.16-.76-.28-1.62-.42-2.59-.42-1.77,0-3.08.51-3.93,1.53-.85,1.02-1.28,2.62-1.28,4.79s.39,3.58,1.18,4.49c.78.91,2.11,1.36,3.97,1.36Z"/>
      <path class="cls-2" d="M582.68,198.48v-13.75h-2.45l.27-2.18h4.94v15.93h-2.76ZM582.41,178.82v-2.52h3.06v2.52h-3.06Z"/>
      <path class="cls-2" d="M595.11,198.82c-1.01,0-1.94-.18-2.79-.54-.85-.36-1.53-.89-2.05-1.6-.52-.71-.77-1.6-.77-2.67,0-1.46.48-2.65,1.44-3.58.96-.93,2.53-1.39,4.71-1.39h5.54v-.97c0-.87-.12-1.57-.35-2.08-.24-.52-.68-.88-1.33-1.11-.65-.22-1.6-.34-2.86-.34-.96,0-1.89.08-2.79.24-.9.16-1.74.37-2.52.64v-2.29c.72-.27,1.56-.49,2.54-.66.97-.17,2.02-.25,3.14-.25,2.26,0,3.96.46,5.09,1.38,1.13.92,1.7,2.41,1.7,4.47v10.42h-2.32l-.2-1.81c-.69.72-1.53,1.25-2.52,1.61-.99.36-2.21.54-3.66.54ZM595.82,196.56c1.16,0,2.2-.21,3.09-.62.9-.41,1.66-.98,2.29-1.7v-3.09h-5.48c-1.25,0-2.15.24-2.69.71-.54.47-.81,1.19-.81,2.15s.32,1.63.97,2c.65.37,1.52.55,2.62.55Z"/>
      <path class="cls-2" d="M608.35,198.48v-15.93h2.49l.17,1.81c.76-.63,1.65-1.14,2.67-1.55,1.02-.4,2.19-.6,3.51-.6,2.02,0,3.48.47,4.4,1.41s1.38,2.42,1.38,4.44v10.42h-2.76v-10.32c0-1.39-.28-2.36-.84-2.91-.56-.55-1.64-.82-3.23-.82-.99,0-1.92.18-2.79.54s-1.62.85-2.25,1.48v12.03h-2.76Z"/>
      <path class="cls-2" d="M634.5,198.82c-2.78,0-4.84-.72-6.18-2.17-1.34-1.44-2.02-3.49-2.02-6.13,0-2.8.76-4.88,2.29-6.25,1.52-1.37,3.57-2.05,6.15-2.05,1.05,0,1.93.07,2.62.22.69.15,1.37.38,2.02.69v2.18c-1.21-.58-2.59-.87-4.13-.87-1.97,0-3.49.47-4.57,1.4-1.08.93-1.61,2.49-1.61,4.69s.47,3.65,1.41,4.62c.94.97,2.5,1.46,4.67,1.46,1.55,0,2.97-.29,4.27-.87v2.22c-.69.29-1.44.51-2.23.66-.8.15-1.69.22-2.67.22Z"/>
      <path class="cls-2" d="M650.33,198.82c-2.85,0-4.97-.68-6.39-2.05-1.41-1.37-2.12-3.47-2.12-6.32,0-2.55.61-4.56,1.83-6.03,1.22-1.47,3.15-2.2,5.8-2.2,1.57,0,2.86.29,3.88.86,1.02.57,1.78,1.36,2.29,2.35.5,1,.76,2.12.76,3.38v2.99h-11.8c.09,1.21.35,2.16.79,2.86.44.69,1.1,1.19,1.98,1.5.88.3,2.05.45,3.51.45,1.64,0,3.14-.28,4.5-.84v2.15c-.69.29-1.47.52-2.34.67s-1.76.24-2.7.24ZM644.58,189.81h9.34v-1.31c0-1.3-.34-2.3-1.02-3.01-.68-.71-1.81-1.06-3.38-1.06-1.9,0-3.2.45-3.9,1.34-.69.9-1.04,2.24-1.04,4.03Z"/>
      <path class="cls-2" d="M659.73,198.48v-3.49h3.75v3.49h-3.75Z"/>
      <path class="cls-2" d="M509.48,198.48v-3.49h3.75v3.49h-3.75Z"/>
    </g>
  </g>
  <path class="cls-1" d="M214.15,198.48c-6.12,0-12.52-1.48-18.53-4.28-9.82-4.57-19.81-14.05-26.21-21.76-.79.44-1.54.84-2.26,1.2-7.32,3.63-15.69,5.56-24.19,5.56-2.23,0-4.47-.13-6.67-.4-11.35-1.37-21.52-6.3-28.64-13.88-3.23-3.43-6.25-7.13-9.17-10.7-6.81-8.34-13.25-16.2-21.77-20.62-1.71-.88-3.58-1.66-5.56-2.49-2.36-.98-4.77-1.99-7.2-3.28-7.42-3.95-13.24-10.95-16.4-19.7-3.08-8.53-3.16-17.85-.2-25.55,3.54-9.23,11.18-16.47,21.51-20.39,5.55-2.11,11.8-3.22,18.09-3.22,3.45,0,6.84.33,10.08,1,1.95.4,3.64,1.53,4.74,3.2,1.1,1.66,1.49,3.65,1.09,5.61-.7,3.46-3.78,5.98-7.31,5.98-.5,0-1-.05-1.49-.15-2.32-.47-4.75-.71-7.21-.71-9.3,0-21.57,3.68-25.55,14.04-3.6,9.37,1.02,22.11,9.68,26.73,1.79.95,3.79,1.78,5.89,2.66,2.18.91,4.43,1.85,6.7,3.02,11.27,5.84,18.99,15.29,26.46,24.42,2.89,3.54,5.62,6.88,8.49,9.93,4.73,5.03,11.67,8.33,19.55,9.28,1.62.2,3.27.3,4.91.3,6.19,0,12.25-1.38,17.53-4,2.2-1.09,4.3-2.37,6.23-3.82,0,0,.02-.01.03-.02,18.18-13.75,17.12-39.88,6.67-58.59-3.36-6.01-8.95-12.93-14.35-19.63-.9-1.11-1.77-2.2-2.63-3.27-7.06,7.99-11.1,19.95-10.62,31.68.08,1.99-.61,3.9-1.96,5.36-1.35,1.47-3.19,2.32-5.18,2.4h-.33c-4.01,0-7.27-3.14-7.44-7.15-.82-19.7,7.8-38.99,21.97-49.14l.12-.1c7.25-5.81,16.03-9.8,25.4-11.54,3.48-.65,7.03-.97,10.54-.97,6,0,11.83.94,17.35,2.8,9.83,3.31,18.88,9.77,25.47,18.18,7.05,8.99,10.76,19.67,10.44,30.06-.15,4.87-.64,9.62-1.1,14.22-.72,7.04-1.39,13.69-.91,20.24.32,4.4,1.88,8.88,3.53,13.62,1.99,5.72,4.04,11.6,4.38,18.29.77,15.05-8.72,29.27-22.57,33.81-3.6,1.18-7.43,1.78-11.38,1.78ZM181.34,163.44c5.09,6.03,13.18,13.78,20.59,17.23,4.01,1.87,8.26,2.86,12.28,2.86,2.37,0,4.62-.34,6.67-1.02,7.45-2.44,12.74-10.55,12.32-18.86-.23-4.57-1.85-9.21-3.56-14.12-1.9-5.45-3.86-11.08-4.33-17.47-.57-7.86.2-15.47.95-22.84.46-4.55.9-8.85,1.03-13.17.21-6.9-2.37-14.14-7.27-20.39-4.82-6.15-11.39-10.85-18.49-13.24-3.95-1.33-8.16-2-12.53-2-7.18,0-14.49,1.88-20.77,5.33.81,1.01,1.63,2.03,2.48,3.08,5.81,7.2,11.8,14.62,15.77,21.73,7.16,12.84,10.42,27.39,9.16,40.97-1.16,12.57-6.1,23.57-14.3,31.91Z"/>
</svg>