<svg width="76" height="86" viewBox="0 0 76 86" fill="none" xmlns="http://www.w3.org/2000/svg">
<path d="M40.5258 0.934814C42.4459 0.934814 44.3659 0.934814 46.286 0.934814C47.5281 1.12155 48.7752 1.27689 50.009 1.50164C56.3367 2.65677 61.673 5.81974 66.5952 9.79908C70.3265 12.8166 72.9312 16.6175 74.2953 21.2281C75.4731 25.2074 75.902 29.2958 75.8426 33.4404C75.7799 37.9089 74.4355 41.9692 71.9398 45.6527C71.1397 46.8343 70.3166 48.0027 69.4407 49.128C65.4933 54.1981 63.6492 59.8911 64.2133 66.341C64.6125 70.897 65.7457 75.2449 67.5536 79.4424C68.8106 82.3608 66.813 85.3634 63.6393 85.3701C54.2583 85.3899 44.8789 85.3816 35.498 85.3734C33.601 85.3734 32.1527 84.3488 31.445 82.5673C31.2834 82.1592 31.1415 81.7427 30.9765 81.3378C30.0462 79.0623 28.9608 76.8875 27.0787 75.2152C26.6052 74.7954 26.1896 74.7078 25.5396 74.9111C21.9073 76.0431 18.2668 77.1552 14.5982 78.1616C12.0282 78.8673 9.45487 77.4048 8.51133 74.9078C7.82017 73.0801 7.66511 71.2391 8.18802 69.337C8.55587 68.0001 8.33318 67.544 7.14221 66.8318C6.86014 66.6632 6.57641 66.4963 6.29764 66.3212C5.40688 65.7626 5.04563 64.9677 5.26667 63.9316C5.35245 63.5333 5.47781 63.145 5.59658 62.7153C5.39863 62.5533 5.19079 62.3798 4.97965 62.208C3.45877 60.9785 3.3202 60.2877 4.2423 58.5327C4.50953 58.0221 4.81305 57.5279 5.03903 56.9991C5.49596 55.9365 5.30461 55.4061 4.30333 54.826C3.66331 54.4559 2.99689 54.1287 2.37006 53.7387C-0.346744 52.0497 -0.72944 50.2088 1.23022 47.6755C2.50533 46.0279 3.92064 44.4893 5.29966 42.9244C6.4362 41.6337 7.16035 40.1646 7.45562 38.4675C7.5447 37.9601 7.66841 37.4231 7.92904 36.9917C8.39257 36.2217 8.21606 35.6581 7.58759 35.1293C7.39954 34.9707 7.23788 34.779 7.04488 34.6253C5.18914 33.1413 4.66459 31.2805 5.47451 29.0496C5.66091 28.5357 5.92319 28.0482 6.11289 27.5359C6.62425 26.151 7.1587 24.7712 7.60408 23.3648C8.04286 21.98 8.29194 20.5324 8.78351 19.1707C11.4475 11.8003 16.1553 6.40144 23.8703 4.2019C27.6263 3.13105 31.4846 2.40228 35.3182 1.61566C37.0304 1.26367 38.7888 1.1546 40.5258 0.934814ZM60.9126 44.7207C61.2095 45.471 61.6499 46.4146 61.9584 47.4011C62.4681 49.0339 62.1827 50.6219 60.8647 51.6845C59.9245 52.4431 59.6968 53.2941 59.6259 54.3402C59.6094 54.5864 59.5632 54.831 59.517 55.0723C58.9413 58.0105 58.3211 60.9388 58.3492 63.958C58.4069 70.2922 60.1604 76.2546 62.28 82.1393C62.3328 82.2848 62.4631 82.5277 62.5324 82.5194C63.245 82.4351 64.0401 82.4682 64.6372 82.1476C65.2855 81.7989 65.208 81.0338 64.9144 80.3728C63.0883 76.2496 61.9798 71.9398 61.4948 67.4548C60.9093 62.0394 61.64 56.8504 64.2727 52.058C65.4703 49.88 66.973 47.8622 68.423 45.8329C70.4189 43.0368 72.1443 40.1283 72.725 36.6778C73.2132 33.7792 73.1126 30.8674 72.7728 27.9672C72.3555 24.4043 71.6115 20.9323 69.8036 17.761C68.0617 14.7055 65.5115 12.4679 62.7633 10.3642C56.4637 5.54046 49.4135 3.28804 41.4908 3.77389C36.4365 4.08457 31.4846 4.98851 26.5986 6.2808C23.6393 7.06411 20.7691 8.09034 18.3476 10.0288C14.3623 13.2215 12.0744 17.4851 10.7234 22.3452C10.1081 24.5563 9.37405 26.741 8.56412 28.8893C7.548 31.5879 7.63707 31.3483 9.43013 32.9364C11.045 34.3658 11.4046 36.1324 10.4891 38.1204C10.4083 38.2939 10.2978 38.4691 10.2747 38.6525C9.90025 41.6387 8.30679 43.939 6.28609 46.051C5.1512 47.2359 4.18457 48.5811 3.1338 49.8486C2.74286 50.3195 2.83359 50.6831 3.3334 50.9839C4.03776 51.4053 4.73387 51.8448 5.45307 52.2398C8.12369 53.7073 8.79341 55.8655 7.40943 58.6071C7.18015 59.0632 6.94261 59.5143 6.73312 59.9208C7.45892 60.567 8.21606 61.0677 8.73402 61.7502C9.41034 62.6393 8.46515 63.3581 8.17483 64.1133C11.1473 66.1609 11.4277 67.0334 10.8174 70.5847C10.6409 71.6143 10.8619 72.771 11.1424 73.8039C11.502 75.1309 12.7969 75.7291 14.1528 75.3986C15.004 75.1904 15.865 75.0069 16.6964 74.7326C22.4187 72.8487 28.1393 70.9665 33.8435 69.028C34.8167 68.6975 35.7388 68.1621 36.6163 67.6118C37.8898 66.812 38.8432 65.7675 38.8927 64.1133C38.9142 63.4011 39.5261 62.9417 40.2388 62.9301C41.1048 62.9152 41.6739 63.5168 41.6541 64.4835C41.6161 66.3658 40.7435 67.8448 39.3628 69.0528C37.5285 70.6591 35.3215 71.5515 33.0566 72.3298C31.8871 72.7314 30.7192 73.1396 29.4705 73.5725C31.5258 75.863 32.9939 78.35 33.9276 81.1495C34.3235 82.336 34.655 82.5706 35.9037 82.5706C41.3357 82.5706 46.7677 82.5706 52.1996 82.5706C52.457 82.5706 52.7159 82.5459 52.9502 82.5326C52.1666 79.9034 51.327 77.3503 50.6474 74.7541C49.1051 68.8628 48.569 62.902 49.9365 56.8967C50.466 54.5699 50.8272 52.2712 50.4462 49.8833C50.3406 49.2189 50.047 48.8967 49.4581 48.6505C47.9735 48.0291 46.413 47.2888 45.7499 45.8015C45.0719 44.2778 44.0542 43.706 42.5613 43.6515C42.2001 43.6383 41.7481 43.6813 41.4809 43.8862C37.2102 47.1764 31.4186 46.2163 28.4907 41.68C28.2234 41.2669 27.9909 41.1727 27.5042 41.2487C22.8278 41.9725 18.9447 40.4984 16.1982 36.6431C13.4534 32.7877 13.3445 28.6414 15.4988 24.4225C15.7083 24.0143 15.8337 23.5003 15.8122 23.0459C15.6885 20.5489 16.6799 18.6997 18.8194 17.4157C19.1064 17.2438 19.3522 16.8174 19.4116 16.4737C20.0813 12.5836 23.7829 10.0156 27.6708 10.741C27.9694 10.7972 28.428 10.6518 28.6358 10.432C31.9646 6.91869 36.491 6.13207 40.6973 8.39937C41.0784 8.60429 41.2928 8.57454 41.6277 8.32501C44.1795 6.42458 47.4737 6.81458 49.5406 9.19259C49.7863 9.47518 50.2383 9.70323 50.6095 9.72802C56.279 10.123 60.4375 13.514 61.9023 18.936C61.9815 19.2269 62.3114 19.559 62.6 19.6648C65.556 20.7455 67.1017 23.6028 66.3742 26.6484C66.2901 27.0004 66.3478 27.4549 66.5029 27.7854C67.5982 30.1204 67.8703 32.5596 66.7849 34.8831C65.8975 36.7852 65.1667 38.7781 64.1209 40.586C63.2714 42.0551 62.0375 43.2995 60.9126 44.7224V44.7207ZM47.9372 43.9738C47.858 44.0762 47.7788 44.1787 47.6997 44.2811C48.1351 44.6001 48.5492 44.9603 49.0127 45.2313C49.7204 45.6428 50.433 46.0874 51.2 46.3534C53.3246 47.0888 55.3173 47.9861 56.8217 49.7593C57.2868 50.308 57.9912 50.3526 58.6312 49.9692C59.2432 49.6023 59.4923 49.0058 59.2861 48.3381C59.0222 47.4854 58.6444 46.6674 58.3343 45.8808C57.4023 46.1204 56.6155 46.36 55.8121 46.5203C55.0253 46.6773 54.3407 46.213 54.1791 45.4991C54.0075 44.7389 54.3853 44.0713 55.1408 43.8201C55.3486 43.7507 55.5796 43.7457 55.7775 43.6565C56.9437 43.1343 58.1463 42.6732 59.2482 42.037C59.8915 41.6668 60.3698 41.0107 60.9241 40.4836C60.6899 40.3481 60.5793 40.3448 60.4754 40.3646C57.8592 40.8868 55.474 40.391 53.3114 38.7963C53.0986 38.6393 52.706 38.6178 52.4289 38.679C50.2928 39.1549 48.2523 38.3815 47.1108 36.6232C46.4625 35.6234 46.507 34.8087 47.2411 34.2915C47.9619 33.7841 48.7356 34.0353 49.4251 35.0021C49.4564 35.0467 49.4878 35.093 49.5208 35.1359C50.1575 35.949 51.1885 36.2035 52.099 35.7738C52.9964 35.3491 53.4384 34.3725 53.1828 33.3528C53.1234 33.1149 53.0013 32.8901 52.9502 32.6505C52.7357 31.6623 53.6694 30.6906 54.6047 31.0128C55.0154 31.1549 55.4525 31.5615 55.6373 31.9597C56.3812 33.571 56.1437 35.1574 55.2496 36.6431C57.3116 38.2659 60.52 38.0345 62.6396 36.187C64.6785 34.4088 65.0298 31.1285 64.1605 29.8494C64.0219 29.9354 63.8834 30.0246 63.7432 30.1072C62.7337 30.7038 61.899 30.6129 61.4338 29.856C60.9637 29.0926 61.2507 28.3605 62.2734 27.7077C62.3196 27.678 62.3691 27.6532 62.4136 27.6218C63.3918 26.9228 63.8652 25.9626 63.6937 24.7761C63.5205 23.5648 62.8194 22.7319 61.6301 22.3485C60.6651 22.0362 59.8106 22.2857 58.9727 22.798C58.2221 23.2574 57.4452 23.0872 57.013 22.4411C56.5709 21.7817 56.7441 20.9306 57.4831 20.4365C57.978 20.106 58.529 19.8581 59.0601 19.5706C58.5075 15.9581 54.3952 12.463 50.9064 12.6877C50.8866 12.8084 50.8734 12.9406 50.8421 13.0678C50.6326 13.8974 50.0684 14.3535 49.3344 14.2924C48.6218 14.2329 48.1764 13.7487 48.0642 12.9158C48.0345 12.6976 48.0081 12.4795 47.9603 12.2663C47.6337 10.8038 46.3965 9.88005 44.8888 9.96764C43.4636 10.0519 42.3238 11.1476 42.1671 12.5869C42.1456 12.777 42.1522 12.9736 42.1077 13.1587C41.9312 13.899 41.3143 14.3568 40.6066 14.289C39.8891 14.2196 39.3744 13.6693 39.3612 12.8976C39.3546 12.5175 39.3612 12.111 39.4849 11.759C39.6994 11.1476 39.4519 10.8898 38.9307 10.632C35.3346 8.86043 30.899 10.6254 29.5018 14.408C29.3979 14.6906 29.327 14.9897 29.195 15.2574C28.8602 15.9416 28.1558 16.2209 27.4745 15.968C26.7883 15.7119 26.4254 15.0459 26.5904 14.3171C26.6498 14.0544 26.7388 13.7982 26.8147 13.5338C24.6703 13.1984 22.5292 14.7385 22.3016 16.7894C22.5045 16.8389 22.7123 16.8869 22.9201 16.9381C24.1853 17.2521 25.2477 17.8949 26.0559 18.9261C26.6102 19.6334 26.5475 20.4778 25.9306 20.9852C25.3367 21.4743 24.5433 21.3867 23.9429 20.7654C23.8092 20.6266 23.6971 20.4679 23.5536 20.3423C22.7024 19.5987 21.7308 19.3574 20.6487 19.7144C19.565 20.0713 18.8804 20.8431 18.6775 21.9453C18.4367 23.2591 18.9497 24.2903 20.0384 25.0719C20.8021 25.6189 20.9324 26.4121 20.4541 27.0798C19.9806 27.7408 19.179 27.8515 18.4185 27.3491C18.1266 27.1574 17.8511 26.9409 17.5245 26.7046C16.411 29.6693 16.6601 32.4472 18.4664 34.9773C20.4145 37.7056 23.1412 38.8542 26.4733 38.5418C26.7982 38.5121 27.2634 38.6063 27.1974 38.0229C27.1463 37.5751 27.3393 37.0661 26.5904 36.8909C24.4443 36.3869 23.2105 34.9707 22.8344 32.8058C22.6397 31.6871 23.0917 30.9021 23.9726 30.7765C24.8716 30.6476 25.4011 31.1384 25.5974 32.2869C25.7953 33.4388 26.3743 34.0072 27.5372 34.1808C27.8407 33.5759 28.0486 32.8819 28.4857 32.3911C28.7942 32.0457 29.4441 31.7746 29.8829 31.8424C30.2821 31.9052 30.7604 32.4125 30.9122 32.8306C31.0425 33.1909 30.8396 33.7379 30.6466 34.1378C29.9225 35.6449 29.7509 37.1818 30.259 38.7765C31.6331 43.088 36.9842 44.3819 40.2388 41.1743C40.8524 40.5695 41.4627 40.3001 42.2957 40.6092C44.5045 41.4255 46.7429 41.4338 49.0045 40.8356C49.9612 40.5827 50.7051 40.9645 50.8948 41.756C51.0994 42.6087 50.6853 43.2632 49.7435 43.5309C49.1463 43.6994 48.5376 43.8267 47.9339 43.9721L47.9372 43.9738ZM59.428 82.5459C57.7141 77.7006 56.34 72.89 55.7363 67.8729C55.1259 62.7979 56.0464 57.8717 56.9932 53.2594C55.6917 52.2828 54.6014 51.4614 53.4302 50.5823C53.4302 51.2268 53.5011 51.8316 53.417 52.4133C53.0953 54.6376 52.7291 56.8537 52.3695 59.0714C51.6437 63.53 51.9126 67.9605 52.9749 72.3182C53.8178 75.7704 54.9016 79.1647 55.8682 82.5459H59.4263H59.428Z" fill="white"/>
</svg>
